Coordinates
version=1
nRows=15
nColumns=23
inDegrees=yes

Units are S.I. units (second, meters, Newtons, ...)
Angles are in degrees.

endheader
time	thorax_tilt	thorax_list	thorax_rotation	thorax_tx	thorax_ty	thorax_tz	sternoclavicular_r2	sternoclavicular_r3	unrotscap_r3	unrotscap_r2	acromioclavicular_r2	acromioclavicular_r3	acromioclavicular_r1	unrothum_r1	unrothum_r3	unrothum_r2	elv_angle	shoulder_elv	shoulder1_r2	shoulder_rot	elbow_flexion	pro_sup
      4.18800000	     -3.29985454	      0.12782612	    -10.45380232	     -0.39248004	      1.58285544	      0.03204850	     -5.61850655	      2.37715069	     -2.38041335	      5.61632324	     -1.13699573	      9.18913477	      4.13159515	     -4.13054963	     -9.19045645	      1.13739081	     46.50362015	     23.20816246	    -46.50352466	     23.56424091	     96.90566434	      8.01943645
      4.19200000	     -2.92291805	      0.05163315	    -10.34429601	     -0.39311712	      1.58322383	      0.03165371	     -5.65982431	      2.39443444	     -2.39818669	      5.65815547	     -1.14528324	      9.25731223	      4.16246219	     -4.16107628	     -9.25872285	      1.14598077	     46.60250926	     23.38073353	    -46.60281883	     23.54030116	     96.99777837	      8.01054707
      4.19600000	     -2.54987216	      0.00544914	    -10.21970162	     -0.39375639	      1.58359784	      0.03132502	     -5.70626089	      2.41397427	     -2.41739240	      5.70409526	     -1.15480358	      9.33287837	      4.19641616	     -4.19492286	     -9.33399163	      1.15509794	     46.71456281	     23.57100651	    -46.71451466	     23.50946908	     97.12378077	      7.99965858
      4.20000000	     -3.59935041	      0.32817020	     -9.98412251	     -0.39394724	      1.58243467	      0.03104834	     -6.06885531	      2.56746244	     -2.57084807	      6.06650086	     -1.22809588	      9.92562119	      4.46270737	     -4.46170895	     -9.92717590	      1.22855749	     48.69118275	     25.06814573	    -48.69103358	     23.20379417	     97.59074230	      7.68517144
      4.20400000	     -3.17694780	      0.26386779	     -9.94285746	     -0.39437108	      1.58280927	      0.03078255	     -6.10556873	      2.58302342	     -2.58652212	      6.10347434	     -1.23546030	      9.98593713	      4.48989137	     -4.48877540	     -9.98755080	      1.23611677	     48.79522572	     25.22066758	    -48.79497140	     23.18581989	     97.68132725	      7.67708424
      4.20800000	     -2.79030064	      0.22793029	     -9.86097284	     -0.39486485	      1.58325148	      0.03052395	     -6.14487380	      2.59969039	     -2.60317396	      6.14271722	     -1.24348576	     10.05035111	      4.51890669	     -4.51754451	    -10.05170918	      1.24399780	     48.90835585	     25.38278940	    -48.90803243	     23.17710635	     97.79328850	      7.66862912
      4.21200000	     -2.42256808	      0.19902537	     -9.76765390	     -0.39535542	      1.58366100	      0.03027580	     -6.18977111	      2.61869824	     -2.62218756	      6.18755157	     -1.25262327	     10.12385076	      4.55198205	     -4.55047128	    -10.12505454	      1.25302928	     49.03004168	     25.56812105	    -49.03009867	     23.15868930	     97.92233228	      7.65825846
      4.21600000	     -4.16294087	     -0.11624545	    -12.31613679	     -0.39062518	      1.57982468	      0.03449175	     -6.59233809	      2.78951878	     -2.79223688	      6.58992965	     -1.33436986	     10.78269418	      4.84751812	     -4.84722155	    -10.78392262	      1.33431912	     57.22363326	     27.23205474	    -57.22368051	     25.66923462	     97.03741427	      6.73044124
      4.22000000	     -3.80879712	     -0.20339552	    -12.20660064	     -0.39108285	      1.58007375	      0.03412013	     -6.63749793	      2.80851536	     -2.81153946	      6.63532877	     -1.34343147	     10.85674640	      4.88093863	     -4.88045698	    -10.85810445	      1.34360206	     57.28688956	     27.41917640	    -57.28676001	     25.60526389	     97.15607723	      6.72140603
      4.22400000	     -3.46731943	     -0.25536835	    -12.07667438	     -0.39159994	      1.58038803	      0.03378937	     -6.68651820	      2.82928981	     -2.83224166	      6.68413159	     -1.35344920	     10.93687012	      4.91697784	     -4.91632113	    -10.93798623	      1.35338298	     57.35957126	     27.62118864	    -57.35970029	     25.54052942	     97.28711146	      6.71123385
      4.22800000	     -3.13739513	     -0.28881505	    -11.94003888	     -0.39211494	      1.58070812	      0.03350477	     -6.74054550	      2.85212051	     -2.85512977	      6.73814173	     -1.36438367	     11.02523034	      4.95670045	     -4.95605743	    -11.02639151	      1.36432050	     57.44037168	     27.84474099	    -57.44038061	     25.46506699	     97.42698467	      6.69907621
      4.23200000	     -2.82381900	     -0.30785507	    -11.79861458	     -0.39262404	      1.58102855	      0.03321229	     -6.79984920	      2.87719737	     -2.88034688	      6.79754618	     -1.37638070	     11.12241982	      5.00048997	     -4.99961917	    -11.12350660	      1.37636442	     57.52851633	     28.08940841	    -57.52842917	     25.37848352	     97.57187235	      6.68485279
      4.23600000	     -3.47021028	      0.19802265	    -11.39004326	     -0.39306245	      1.58095022	      0.03277423	     -7.09505874	      3.00243225	     -3.00553333	      7.09329832	     -1.43578453	     11.60573666	      5.21759267	     -5.21704039	    -11.60677361	      1.43655614	     58.04200889	     29.31034236	    -58.04203670	     24.51652633	     98.03010352	      6.51247123
      4.24000000	     -3.14772750	      0.06497930	    -11.23402940	     -0.39367314	      1.58101457	      0.03238276	     -7.14683395	      3.02431476	     -3.02742192	      7.14494410	     -1.44642978	     11.69053722	      5.25583707	     -5.25497859	    -11.69150032	      1.44688644	     58.11682123	     29.52414451	    -58.11683232	     24.53599476	     98.12195886	      6.50996529
      4.24400000	     -2.84353085	     -0.01353000	    -11.10371350	     -0.39412077	      1.58121479	      0.03206647	     -7.20141326	      3.04734940	     -3.05012296	      7.19876689	     -1.45759540	     11.77892400	      5.29541373	     -5.29483197	    -11.77999438	      1.45761286	     58.19848638	     29.74827295	    -58.19830333	     24.52095988	     98.21597510	      6.50303363
